<?xml version="1.0" encoding="utf-8"?>
<!-- Generator: Adobe Illustrator 25.0.1, SVG Export Plug-In . SVG Version: 6.00 Build 0)  -->
<svg version="1.1" id="Layer_1" xmlns="http://www.w3.org/2000/svg" xmlns:xlink="http://www.w3.org/1999/xlink" x="0px" y="0px"
	 viewBox="0 0 171.8 50.9" style="enable-background:new 0 0 171.8 50.9;" xml:space="preserve">
<style type="text/css">
	.st0{fill:none;}
	.st1{fill:#E14459;}
	.st2{fill:#C73148;}
	.st3{fill:#FFFFFF;}
</style>
<rect class="st0" width="171.8" height="50.9"/>
<g id="Path_5189">
	<path d="M6.4,0h159.1c3.5,0,6.4,2.8,6.4,6.4v38.2c0,3.5-2.9,6.4-6.4,6.4H6.4c-3.5,0-6.4-2.8-6.4-6.4c0,0,0,0,0,0l0,0V6.4
		C0,2.8,2.8,0,6.4,0C6.4,0,6.4,0,6.4,0L6.4,0"/>
</g>
<g id="Group_14542">
	<g id="rect817">
		<path class="st1" d="M16.6,7.8h21.5c3.9,0,7,3.1,7,7v21.5c0,3.9-3.1,7-7,7H16.6c-3.9,0-7-3.1-7-7V14.8C9.6,10.9,12.8,7.8,16.6,7.8
			z"/>
	</g>
	<g id="path838">
		<path class="st2" d="M18.3,10.1c-0.6,0-1,0.4-1,1s0.4,1,1,1s1-0.4,1-1l0,0C19.3,10.5,18.8,10.1,18.3,10.1z M36.4,10.1
			c-0.6,0-1,0.4-1,1s0.4,1,1,1s1-0.4,1-1l0,0C37.4,10.5,36.9,10.1,36.4,10.1z"/>
	</g>
	<g id="path2">
		<path class="st3" d="M18.3,11c-0.4,0-0.3,0.5-0.3,0.5c2.9,5.2,9.5,7,14.7,4.1c1.7-1,3.1-2.4,4.1-4.1c0,0,0.1-0.7-0.7-0.4
			c-2.7,4.8-8.8,6.5-13.6,3.9c-1.6-0.9-2.9-2.2-3.9-3.9C18.5,11,18.4,11,18.3,11z M31,25.2l-1,3.2l-1.1-3.2h-1l1.6,4.6h0.8l1.1-3
			l1.1,3h0.8l1.7-4.6h-1l-1,3.2l-1.1-3.2H31z M25.3,25.2l-2.1,4.6h1l0.4-0.9v-0.1h2.2l0.4,1h1l-2.1-4.6l0,0L25.3,25.2z M40.4,25.2
			v4.6h1v-4.6H40.4z M13.2,25.2v4.6h1V28h2.2v1.9h1v-4.7h-1v1.9h-2.2v-1.9H13.2z M21.8,25.2v2.7c0,0.8-0.4,1.2-1.1,1.2
			s-1.1-0.4-1.1-1.2v-2.6h-1v2.7c-0.1,1,0.6,2,1.6,2.1c0,0,0.1,0,0.1,0c0.1,0,0.3,0,0.4,0c1,0.1,1.9-0.7,2-1.7c0-0.1,0-0.3,0-0.4
			v-2.7H21.8z M35.7,25.2v4.6h3.6V29h-2.6v-1.1h1.8V27h-1.8v-1h2.5v-0.9L35.7,25.2z M25.7,26.4l0.7,1.6l0,0.1H25V28L25.7,26.4z"/>
	</g>
</g>
<g id="Group_14543">
	<g id="Path_9981">
		<path class="st3" d="M63.5,33.6h-5.6L56.7,37h-2.6l5.4-14.4h2.2L67.3,37h-2.6L63.5,33.6z M58.6,31.6h4.2l-2.1-6L58.6,31.6z"/>
	</g>
	<g id="Path_9982">
		<path class="st3" d="M78,31.7c0.1,1.4-0.3,2.8-1.1,4c-1.3,1.7-3.8,2-5.5,0.6c0,0,0,0,0,0c-0.1-0.1-0.2-0.2-0.3-0.3v5.1h-2.4V26.2
			h2.2l0.1,1.1c0.7-0.9,1.8-1.3,2.9-1.3c1.2,0,2.3,0.5,3.1,1.5c0.8,1.2,1.2,2.6,1.1,4L78,31.7z M75.6,31.5c0-0.9-0.2-1.7-0.6-2.5
			c-0.4-0.6-1.1-1-1.8-1c-0.9-0.1-1.7,0.4-2.1,1.2V34c0.4,0.8,1.2,1.3,2.1,1.2c0.7,0,1.4-0.3,1.8-0.9C75.5,33.5,75.7,32.5,75.6,31.5
			L75.6,31.5z"/>
	</g>
	<g id="Path_9983">
		<path class="st3" d="M89.4,31.7c0.1,1.4-0.3,2.8-1.1,4c-1.3,1.7-3.8,2-5.5,0.6c0,0,0,0,0,0c-0.1-0.1-0.2-0.2-0.3-0.3v5.1h-2.4
			V26.2h2.2l0.1,1.1c0.7-0.9,1.8-1.3,2.9-1.3c1.2,0,2.3,0.5,3.1,1.5c0.8,1.2,1.2,2.6,1.1,4V31.7z M87,31.5c0.1-0.9-0.2-1.7-0.6-2.5
			c-0.4-0.6-1.1-1-1.8-1c-0.9-0.1-1.7,0.4-2.1,1.2V34c0.4,0.8,1.2,1.3,2.1,1.2c0.7,0,1.4-0.3,1.8-0.9C86.9,33.5,87.1,32.5,87,31.5z"
			/>
	</g>
	<g id="Path_9984">
		<path class="st3" d="M102.7,35.1c-0.6,0.7-1.3,1.2-2.2,1.5c-1,0.4-2.1,0.5-3.1,0.5c-1.1,0-2.2-0.3-3.2-0.8
			c-0.9-0.6-1.7-1.4-2.2-2.3c-0.5-1.1-0.8-2.3-0.8-3.6v-1.1c-0.1-1.8,0.4-3.6,1.6-5.1c1.1-1.2,2.7-1.9,4.4-1.8
			c1.4-0.1,2.7,0.4,3.8,1.2c1,0.9,1.6,2.1,1.7,3.4h-2.4c-0.1-1.5-1.4-2.7-2.9-2.6h-0.1c-1-0.1-2,0.4-2.6,1.2c-0.7,1.1-1,2.3-0.9,3.5
			v1.1c-0.1,1.3,0.3,2.6,1,3.6c0.6,0.9,1.7,1.3,2.7,1.3c1,0.1,2-0.2,2.7-0.9v-2.8h-3v-1.9h5.5L102.7,35.1z"/>
	</g>
	<g id="Path_9985">
		<path class="st3" d="M111.7,37c-0.1-0.3-0.2-0.7-0.3-1c-1.5,1.5-3.8,1.6-5.4,0.3c-0.7-0.6-1-1.4-1-2.3c-0.1-1,0.4-2,1.3-2.6
			c1.1-0.7,2.4-1,3.6-0.9h1.5v-0.7c0-0.5-0.1-1-0.5-1.3c-0.4-0.4-0.9-0.5-1.4-0.5c-0.5,0-1,0.1-1.3,0.4c-0.3,0.2-0.5,0.6-0.5,1h-2.4
			c0-0.6,0.2-1.2,0.6-1.6c0.4-0.5,1-0.9,1.6-1.2c0.7-0.3,1.5-0.4,2.2-0.4c1.1-0.1,2.1,0.3,3,1c0.8,0.7,1.2,1.6,1.2,2.6v4.8
			c0,0.8,0.1,1.6,0.4,2.3V37H111.7z M109,35.2c0.5,0,0.9-0.1,1.3-0.3c0.4-0.2,0.8-0.5,1-0.9v-2H110c-0.7,0-1.4,0.1-2,0.5
			c-0.4,0.3-0.7,0.8-0.7,1.3c0,0.4,0.2,0.8,0.5,1.1C108.1,35.1,108.6,35.2,109,35.2L109,35.2z"/>
	</g>
	<g id="Path_9986">
		<path class="st3" d="M118.8,37h-2.4V21.8h2.4V37z"/>
	</g>
	<g id="Path_9987">
		<path class="st3" d="M124,37h-2.4V21.8h2.4V37z"/>
	</g>
	<g id="Path_9988">
		<path class="st3" d="M131.3,37.2c-1.4,0.1-2.7-0.5-3.7-1.4c-1-1-1.5-2.4-1.4-3.8v-0.3c0-1,0.2-2,0.6-2.9c0.4-0.8,1-1.5,1.7-2
			c0.7-0.5,1.6-0.7,2.5-0.7c1.3-0.1,2.5,0.4,3.4,1.4c0.9,1.1,1.3,2.5,1.2,4v1h-7c0,0.8,0.3,1.5,0.9,2.1c0.5,0.5,1.2,0.8,1.9,0.8
			c1.1,0,2.1-0.5,2.7-1.3l1.3,1.2c-0.4,0.6-1,1.2-1.7,1.5C132.9,37,132.1,37.2,131.3,37.2z M131,28c-0.6,0-1.2,0.2-1.6,0.7
			c-0.4,0.6-0.7,1.2-0.8,1.9h4.6v-0.2c0-0.7-0.2-1.3-0.6-1.8C132.2,28.2,131.6,28,131,28z"/>
	</g>
	<g id="Path_9989">
		<path class="st3" d="M143,28.4c-0.3-0.1-0.7-0.1-1-0.1c-0.9-0.1-1.8,0.4-2.2,1.3V37h-2.4V26.2h2.3l0.1,1.2
			c0.5-0.9,1.4-1.4,2.4-1.4c0.3,0,0.6,0,0.9,0.1V28.4z"/>
	</g>
	<g id="Path_9990">
		<path class="st3" d="M148.3,33.5l2.2-7.3h2.5l-4.2,12.3c-0.7,1.8-1.8,2.7-3.3,2.7c-0.4,0-0.8-0.1-1.2-0.2v-1.9h0.4
			c0.5,0,1-0.1,1.4-0.3c0.4-0.3,0.6-0.7,0.7-1.1l0.4-0.9l-3.8-10.6h2.6L148.3,33.5z"/>
	</g>
</g>
<g id="Explore_it_on">
	<g>
		<path class="st3" d="M58.2,12.6c0,0.1-0.1,0.2-0.3,0.2h-2.5V15h3c0.2,0,0.3,0.1,0.3,0.2v0.6c0,0.2-0.1,0.3-0.3,0.3h-4.1
			c-0.2,0-0.3,0-0.3-0.3v-7c0-0.2,0.1-0.3,0.2-0.3h4.2c0.2,0,0.3,0.1,0.2,0.2l-0.1,0.7c0,0.2-0.2,0.2-0.4,0.2h-2.8v2h2.5
			c0.2,0,0.3,0.1,0.3,0.2V12.6z"/>
		<path class="st3" d="M65.5,15.9c0.1,0.2,0,0.3-0.2,0.3h-1c-0.2,0-0.3-0.1-0.4-0.2l-1.6-2.6l0,0l-1.5,2.6c-0.1,0.2-0.3,0.3-0.5,0.2
			h-0.9c-0.2,0-0.2-0.1-0.1-0.3l2.3-3.6l-2.1-3.4c-0.1-0.1,0-0.3,0.2-0.3h1c0.2,0,0.3,0.1,0.4,0.2l1.3,2.3l0,0l1.4-2.3
			c0.1-0.1,0.2-0.2,0.4-0.2h1c0.2,0,0.2,0.1,0.1,0.3l-2.2,3.3L65.5,15.9z"/>
		<path class="st3" d="M70.6,12.9c-0.6,0.4-1.4,0.6-2.2,0.6h-0.5v2.4c0,0.2-0.1,0.3-0.3,0.3h-0.9c-0.2,0-0.3-0.1-0.3-0.3v-7
			c0-0.2,0.1-0.3,0.3-0.3h1.6c0.9-0.1,1.9,0.2,2.6,0.8c0.4,0.4,0.6,1,0.5,1.6C71.5,11.7,71.2,12.4,70.6,12.9z M68.5,9.7h-0.6v2.8
			h0.3c0.5,0.1,1.1-0.1,1.5-0.4c0.2-0.3,0.4-0.6,0.3-1C70.1,10,69.4,9.7,68.5,9.7z"/>
		<path class="st3" d="M77.1,15.9c0,0.2-0.1,0.3-0.3,0.3h-3.9c-0.2,0-0.3-0.1-0.3-0.3v-7c0-0.2,0.1-0.3,0.3-0.3h0.9
			c0.2,0,0.3,0.1,0.3,0.3V15h2.8c0.2,0,0.3,0.1,0.3,0.2L77.1,15.9z"/>
		<path class="st3" d="M80.9,16.3c-2.1,0-3.3-1.5-3.3-3.9s1.3-4,3.4-4s3.3,1.6,3.3,3.9C84.3,14.8,82.8,16.3,80.9,16.3z M80.9,9.6
			c-1.1,0-1.8,1-1.8,2.7s0.7,2.8,1.8,2.8s1.8-1,1.8-2.8S82.1,9.6,80.9,9.6z"/>
		<path class="st3" d="M90.9,15.9c0.1,0.2,0.1,0.3-0.1,0.3h-1c-0.2,0-0.3,0-0.4-0.2l-1.6-2.6H87v2.5c0,0.1-0.1,0.3-0.2,0.3
			c0,0,0,0-0.1,0h-0.9c-0.2,0-0.3-0.1-0.3-0.3v-7c0-0.2,0-0.3,0.3-0.3h1.6c0.9-0.1,1.8,0.2,2.5,0.8c0.4,0.4,0.5,1,0.5,1.6
			c0,1-0.5,1.8-1.4,2.2L90.9,15.9z M87.5,9.7H87v2.7h0.7c0.7,0.1,1.4-0.4,1.4-1.2c0,0,0-0.1,0-0.1C89.1,10,88.5,9.6,87.5,9.7z"/>
		<path class="st3" d="M96.3,12.6c0,0.1-0.1,0.2-0.3,0.2h-2.5V15h3c0.2,0,0.3,0.1,0.3,0.2v0.6c0,0.2-0.1,0.3-0.3,0.3h-4.1
			c-0.2,0-0.3,0-0.3-0.3v-7c0-0.2,0.1-0.3,0.2-0.3h4.2c0.2,0,0.2,0.1,0.2,0.2l-0.1,0.7c0,0.2-0.1,0.2-0.4,0.2h-2.8v2H96
			c0.2,0,0.3,0.1,0.3,0.2L96.3,12.6z"/>
		<path class="st3" d="M103.6,9.3c0,0.2-0.1,0.2-0.2,0.2h-0.6v5.8h0.6c0.1,0,0.2,0.1,0.2,0.2c0,0,0,0,0,0V16c0,0.1-0.1,0.2-0.2,0.2
			h-2.6c-0.2,0-0.2-0.1-0.2-0.2v-0.5c0-0.1,0.1-0.2,0.2-0.2h0.6V9.5h-0.6c-0.1,0-0.2-0.1-0.2-0.2c0,0,0,0,0-0.1V8.8
			c0-0.1,0.1-0.2,0.2-0.2c0,0,0,0,0,0h2.7c0.1,0,0.2,0.1,0.2,0.2c0,0,0,0,0,0L103.6,9.3z"/>
		<path class="st3" d="M106.7,9.7h-2.1c-0.2,0-0.2-0.1-0.2-0.3V8.8c0-0.2,0.1-0.2,0.2-0.2h5.6c0.3,0,0.3,0.1,0.3,0.3l-0.1,0.6
			c0,0.2-0.1,0.2-0.3,0.2h-2v6.2c0,0.2-0.1,0.3-0.3,0.3H107c-0.2,0-0.3-0.1-0.3-0.3L106.7,9.7z"/>
		<path class="st3" d="M117,16.3c-2.1,0-3.3-1.5-3.3-3.9s1.3-4,3.4-4s3.3,1.6,3.3,3.9C120.4,14.8,119,16.3,117,16.3z M117,9.6
			c-1.1,0-1.8,1-1.8,2.7s0.7,2.8,1.8,2.8s1.8-1,1.8-2.8S118.2,9.6,117,9.6L117,9.6z"/>
		<path class="st3" d="M127.8,8.6c0.2,0,0.3,0.1,0.3,0.3v7c0,0.2-0.1,0.3-0.3,0.3h-0.7c-0.2,0-0.4-0.1-0.4-0.2l-3.6-4.9l0,0v4.9
			c0,0.2-0.1,0.3-0.3,0.3H122c-0.2,0-0.3,0-0.3-0.3v-7c0-0.2,0.1-0.3,0.3-0.3h0.7c0.2,0,0.3,0.1,0.4,0.2l3.6,5l0,0v-5
			c0-0.2,0.1-0.3,0.3-0.3H127.8z"/>
	</g>
</g>
</svg>
